<svg width="24" height="24" viewBox="0 0 24 24" fill="none" xmlns="http://www.w3.org/2000/svg">
<path d="M4.425 11.9999C4.425 11.8666 4.44567 11.7416 4.487 11.6249C4.52833 11.5082 4.59933 11.3999 4.7 11.2999L11.3 4.6999C11.5 4.4999 11.7373 4.3999 12.012 4.3999C12.2867 4.3999 12.5243 4.4999 12.725 4.6999C12.925 4.8999 13.025 5.13324 13.025 5.3999C13.025 5.66657 12.925 5.8999 12.725 6.0999L7.825 10.9999L19.025 10.9999C19.3083 10.9999 19.5417 11.0959 19.725 11.2879C19.9083 11.4799 20 11.7172 20 11.9999C20 12.2832 19.904 12.5209 19.712 12.7129C19.52 12.9049 19.2827 13.0006 19 12.9999L7.825 12.9999L12.725 17.8999C12.925 18.0999 13.025 18.3332 13.025 18.5999C13.025 18.8666 12.925 19.0999 12.725 19.2999C12.525 19.4999 12.2873 19.5999 12.012 19.5999C11.7367 19.5999 11.4993 19.4999 11.3 19.2999L4.7 12.6999C4.6 12.5999 4.529 12.4916 4.487 12.3749C4.445 12.2582 4.42433 12.1332 4.425 11.9999Z" fill="#4E4E4E"/>
</svg>
