<svg width="16" height="17" viewBox="0 0 16 17" fill="none" xmlns="http://www.w3.org/2000/svg">
<path d="M16 8.59961C16 8.73996 15.9788 8.87154 15.9363 8.99435C15.8938 9.11715 15.8209 9.23119 15.7175 9.33645L8.93739 16.2838C8.73193 16.4943 8.48812 16.5996 8.20596 16.5996C7.9238 16.5996 7.67965 16.4943 7.47351 16.2838C7.26805 16.0733 7.16532 15.8277 7.16532 15.547C7.16532 15.2663 7.26805 15.0207 7.47351 14.8101L12.5072 9.65224H1.0016C0.71054 9.65224 0.47084 9.55119 0.282504 9.34908C0.094168 9.14698 0 8.89715 0 8.59961C0 8.30136 0.0986196 8.05119 0.295859 7.84908C0.493098 7.64698 0.736907 7.54628 1.02729 7.54698L12.5072 7.54698L7.47351 2.38908C7.26805 2.17856 7.16532 1.93294 7.16532 1.65224C7.16532 1.37154 7.26805 1.12593 7.47351 0.915401C7.67896 0.704874 7.92312 0.599609 8.20596 0.599609C8.48881 0.599609 8.73262 0.704874 8.93739 0.915401L15.7175 7.86277C15.8202 7.96803 15.8931 8.08207 15.9363 8.20487C15.9794 8.32768 16.0007 8.45926 16 8.59961Z" fill="#4F86BC"/>
</svg>
