<svg width="19" height="23" viewBox="0 0 19 23" fill="none" xmlns="http://www.w3.org/2000/svg">
<path d="M9.70748 11.7922C10.3202 11.7922 10.845 11.5786 11.2817 11.1516C11.7185 10.7246 11.9365 10.2118 11.9357 9.61341C11.9357 9.01426 11.7174 8.50116 11.2806 8.07413C10.8439 7.6471 10.3195 7.43394 9.70748 7.43467C9.0947 7.43467 8.56995 7.64819 8.13321 8.07522C7.69647 8.50225 7.47847 9.01498 7.47922 9.61341C7.47922 10.2126 7.69759 10.7257 8.13433 11.1527C8.57106 11.5797 9.09545 11.7929 9.70748 11.7922ZM9.70748 22.6859C6.71789 20.1985 4.48518 17.8883 3.00932 15.7553C1.53347 13.6223 0.795176 11.6476 0.794434 9.83129C0.794434 7.10786 1.69057 4.93819 3.48283 3.32229C5.27509 1.70639 7.34998 0.898438 9.70748 0.898438C12.0657 0.898438 14.141 1.70639 15.9332 3.32229C17.7255 4.93819 18.6213 7.10786 18.6205 9.83129C18.6205 11.6469 17.8822 13.6216 16.4056 15.7553C14.929 17.889 12.6963 20.1992 9.70748 22.6859Z" fill="white"/>
</svg>
