<svg width="20" height="17" viewBox="0 0 20 17" fill="none" xmlns="http://www.w3.org/2000/svg">
<path d="M2.16647 16.8212C1.62178 16.8212 1.15533 16.6271 0.767121 16.2389C0.378909 15.8507 0.185132 15.3846 0.185793 14.8406V2.95651C0.185793 2.41182 0.379899 1.94537 0.768112 1.55716C1.15632 1.16895 1.62244 0.975172 2.16647 0.975832H18.0119C18.5566 0.975832 19.023 1.16994 19.4112 1.55815C19.7994 1.94636 19.9932 2.41248 19.9926 2.95651V14.8406C19.9926 15.3853 19.7985 15.8517 19.4102 16.2399C19.022 16.6281 18.5559 16.8219 18.0119 16.8212H2.16647ZM10.0892 9.88888L18.0119 4.93718V2.95651L10.0892 7.9082L2.16647 2.95651V4.93718L10.0892 9.88888Z" fill="white"/>
</svg>
