<svg width="31" height="30" viewBox="0 0 31 30" fill="none" xmlns="http://www.w3.org/2000/svg">
<path d="M15.5 0C7.21562 0 0.5 6.71562 0.5 15C0.5 23.2844 7.21562 30 15.5 30C23.7844 30 30.5 23.2844 30.5 15C30.5 6.71562 23.7844 0 15.5 0ZM21.6016 12.2875C21.6078 12.4156 21.6094 12.5437 21.6094 12.6687C21.6094 16.575 18.6391 21.0766 13.2047 21.0766C11.5989 21.0792 10.0265 20.618 8.67656 19.7484C8.90625 19.7766 9.14219 19.7875 9.38125 19.7875C10.7656 19.7875 12.0391 19.3172 13.05 18.5234C12.4339 18.5113 11.837 18.3073 11.3424 17.9399C10.8477 17.5724 10.4801 17.0598 10.2906 16.4734C10.7331 16.5576 11.1888 16.5399 11.6234 16.4219C10.9548 16.2867 10.3534 15.9243 9.92142 15.3963C9.4894 14.8684 9.25329 14.2072 9.25312 13.525V13.4891C9.65156 13.7094 10.1078 13.8438 10.5922 13.8594C9.96531 13.4421 9.52154 12.801 9.35163 12.0674C9.18172 11.3337 9.29852 10.5629 9.67812 9.9125C10.4202 10.825 11.3457 11.5715 12.3946 12.1036C13.4436 12.6357 14.5925 12.9417 15.7672 13.0016C15.6178 12.3677 15.6821 11.7022 15.95 11.1086C16.2179 10.515 16.6744 10.0265 17.2485 9.71916C17.8227 9.41178 18.4823 9.30269 19.1248 9.40886C19.7674 9.51503 20.3568 9.83051 20.8016 10.3062C21.4628 10.1754 22.0968 9.9329 22.6766 9.58906C22.4562 10.2736 21.9948 10.855 21.3781 11.225C21.9638 11.1545 22.5357 10.997 23.075 10.7578C22.6789 11.3514 22.1799 11.8694 21.6016 12.2875Z" fill="#4F86BC"/>
</svg>
